<svg xmlns="http://www.w3.org/2000/svg" width="102" height="19" viewBox="0 0 102 19">
    <path fill="#F56B2A" fill-rule="evenodd" d="M25.732 15.662c1.607 0 2.593-1.271 2.593-3.167 0-1.895-.986-3.166-2.593-3.166-1.606 0-2.588 1.27-2.588 3.166s.982 3.167 2.588 3.167zm1.199-9.401c3.072 0 5.087 2.639 5.087 6.188 0 3.62-2.112 6.281-5.206 6.281-1.654 0-3.043-.765-3.86-2.061h-.05v1.823h-3.358V2.422c0-1.223.816-1.988 1.798-1.988.986 0 1.802.765 1.802 1.989v5.729h.047c1.007-1.292 2.278-1.891 3.74-1.891zm12.377 9.4c1.606 0 2.588-1.27 2.588-3.166 0-1.895-.982-3.166-2.588-3.166-1.607 0-2.593 1.27-2.593 3.166s.986 3.167 2.593 3.167zm0-9.4c3.79 0 6.235 2.588 6.235 6.234 0 3.647-2.444 6.235-6.235 6.235-3.791 0-6.235-2.588-6.235-6.235 0-3.646 2.444-6.234 6.235-6.234zm47.605-.002c.982 0 1.802.77 1.802 1.993V18.49h-3.6V8.252c0-1.224.816-1.993 1.798-1.993zm0-6.259a2.192 2.192 0 0 1 2.184 2.184c0 1.174-.96 2.18-2.184 2.18-1.199 0-2.206-.934-2.206-2.18 0-1.177.96-2.184 2.206-2.184zM98.16 6.259c2.494 0 3.837 1.776 3.837 4.462v7.77h-3.595v-6.762c0-1.581-.744-2.113-1.679-2.113-1.394 0-2.448 1.178-2.448 3.672v5.202h-3.6V8.13c0-1.173.77-1.87 1.683-1.87.91 0 1.675.697 1.675 1.87v.455h.05c.915-1.411 2.304-2.325 4.077-2.325zm-20.794 9.403c1.61 0 2.588-1.271 2.588-3.167 0-1.895-.977-3.166-2.588-3.166-1.606 0-2.588 1.27-2.588 3.166s.982 3.167 2.588 3.167zm0-9.401c3.791 0 6.239 2.588 6.239 6.234 0 3.647-2.448 6.235-6.239 6.235s-6.235-2.588-6.235-6.235c0-3.646 2.444-6.234 6.235-6.234zM65.808 9.378c-1.555 0-2.52 1.152-2.52 3.115 0 1.968.965 3.12 2.52 3.12 1.033 0 1.802-.502 2.185-1.199h.047l2.613 1.68c-.91 1.776-2.809 2.638-4.964 2.638-3.74 0-6.043-2.592-6.043-6.239 0-3.642 2.303-6.234 6.043-6.234 2.155 0 4.055.862 4.964 2.639l-2.613 1.679h-.047c-.383-.697-1.152-1.199-2.185-1.199zM54.465 6.26c2.495 0 3.834 1.776 3.834 4.462v7.77h-3.591v-6.762c0-1.581-.744-2.113-1.683-2.113-1.39 0-2.444 1.178-2.444 3.672v5.202h-3.6V8.13c0-1.173.77-1.87 1.679-1.87.914 0 1.679.697 1.679 1.87v.455h.05c.91-1.411 2.3-2.325 4.076-2.325zM9.81 11.783c0 .4.119.99.264 1.36l3.986-2.97c-.217-.324-.646-1.042-1.84-1.042-1.135 0-2.41.833-2.41 2.652zm3.485 4.012c1.437 0 2.61-1.08 3.077-1.976l2.367 1.704c-.905 1.845-2.766 3.209-5.869 3.209a6.083 6.083 0 0 1-4.029-1.517c-1.56 1.037-2.907 1.491-4.241 1.491C1.904 18.706 0 16.904 0 14.19V2.39C0 1.17.812.406 1.79.406c.981 0 1.793.765 1.793 1.985l.004 11.492c0 1.168.501 1.793 1.572 1.793.574 0 1.203-.336 2.02-.782a7.42 7.42 0 0 1-.579-2.928c0-2.542 1.81-5.708 5.619-5.708 3.306 0 5.079 1.921 5.818 4.335l-6.366 4.56c.335.294.811.642 1.623.642z"/>
</svg>
